<svg width="460" height="130" viewBox="0 0 460 130" fill="none" xmlns="http://www.w3.org/2000/svg">
<g clip-path="url(#clip0_922_27)">
<path d="M85.7285 80.3807L29.1481 97.3232C24.882 98.6006 20.5057 96.2413 19.2283 91.9753L2.28591 35.395C1.00846 31.1289 3.36782 26.7526 7.63392 25.4751L64.2143 8.53271C68.4802 7.25531 72.8566 9.61462 74.1341 13.8807L91.0765 70.4611C92.3538 74.7271 89.9944 79.1033 85.7285 80.3807Z" fill="#5CA4DA"/>
<path d="M57.9274 10.4152C58.7292 22.8974 55.5338 37.5549 47.9839 51.5593C39.962 66.4388 28.4173 77.7248 16.7407 83.6678L2.28591 35.395C1.00846 31.1289 3.36782 26.7526 7.63393 25.4751L57.9274 10.4152Z" fill="#6DAFE0"/>
<path d="M63.2312 42.8344C64.9412 35.472 64.5403 29.231 60.5229 27.2534C56.4383 25.0513 51.2285 28.0792 46.0176 33.5541C40.5426 28.3432 35.0665 25.5791 31.1367 27.9791C27.2069 30.3791 27.316 36.463 29.4674 43.6478C22.2826 45.7992 17.2073 49.2762 17.2949 53.6539C17.4497 58.256 22.7685 61.3117 30.1309 63.0217C28.4209 70.3841 28.8219 76.6252 32.8392 78.6028C36.9238 80.8049 42.1336 77.777 47.3446 72.302C52.8195 77.5129 58.2956 80.277 62.2254 77.877C66.1552 75.477 66.0461 69.3931 63.8947 62.2084C71.0795 60.0569 76.1548 56.5799 76.0673 52.2023C75.9126 47.6001 70.5937 44.5442 63.2312 42.8344ZM58.95 30.1709C60.7005 31.1146 61.3045 35.5824 59.7747 41.9122C57.7095 41.5519 55.4199 41.2589 52.973 41.2577C51.6943 39.4387 50.1911 37.6869 48.688 35.9351C53.1352 31.1782 56.9749 29.2944 58.95 30.1709ZM51.4812 60.7876C48.1362 61.0552 45.4647 61.1213 42.277 61.0972C40.5049 58.4473 39.0917 56.1793 37.477 53.2376C38.8255 50.3873 40.0838 48.0532 41.8812 45.0684C45.2263 44.8008 47.8978 44.7347 51.0854 44.7589C52.8576 47.4088 54.2707 49.6768 55.8854 52.6184C54.6042 55.6932 53.3459 58.0273 51.4812 60.7876ZM57.9037 56.9072C58.3971 57.7381 58.7332 58.8607 59.0022 59.7588C58.1041 60.0277 57.1387 60.0722 56.0161 60.4083L57.9037 56.9072ZM48.9873 64.715C48.2909 65.6575 47.7517 66.3082 47.2799 67.1835C46.562 66.4198 45.8439 65.6562 45.3505 64.8253C46.9895 64.5791 47.0567 64.8036 48.9873 64.715ZM37.7648 60.7356C36.7322 60.5556 35.7668 60.5999 34.7343 60.4198C34.9815 59.6118 35.3862 58.5119 35.8582 57.6368C36.5535 59.1411 36.7779 59.0739 37.7648 60.7356ZM35.4586 48.9488C34.9652 48.1179 34.629 46.9953 34.3601 46.0971C35.2582 45.8282 36.2235 45.7838 37.3461 45.4476L35.4586 48.9488ZM44.375 41.141C45.0714 40.1984 45.6106 39.5477 46.0823 38.6724C46.8002 39.4361 47.5183 40.1997 48.0117 41.0306C46.3728 41.2768 46.3055 41.0523 44.375 41.141ZM55.5975 45.1203C56.63 45.3003 57.5954 45.256 58.628 45.4361C58.3807 46.2442 57.976 47.344 57.504 48.2192C56.8088 46.7149 56.5843 46.7821 55.5975 45.1203ZM33.2678 31.0108C34.9296 30.024 39.1042 31.7097 43.8611 36.1572C42.401 37.8176 41.2328 39.6353 39.84 41.5205C37.4603 41.7438 35.3723 42.1242 33.0599 42.572C31.2446 36.5097 31.3815 32.0649 33.2678 31.0108ZM20.999 53.7678C20.9101 51.8371 24.4809 49.0554 30.7678 47.1728C31.5973 49.1263 32.4941 51.3043 33.6156 53.415C32.8064 55.6147 31.9297 57.5897 31.3449 59.7221C24.7233 58.0351 21.0879 55.6985 20.999 53.7678ZM34.4122 75.6851C32.6618 74.7413 32.0578 70.2736 33.5876 63.9438C35.6527 64.304 37.9424 64.5971 40.3893 64.5982C41.668 66.4172 43.1712 68.169 44.6742 69.9209C40.2271 74.6779 36.3874 76.5615 34.4122 75.6851ZM60.0944 74.8451C58.4327 75.832 54.2581 74.1462 49.5011 69.6988C50.9612 68.0383 52.1294 66.2206 53.5223 64.3355C55.9019 64.1121 57.9899 63.7317 60.3023 63.2839C62.1177 69.3462 61.9807 73.791 60.0944 74.8451ZM72.3633 52.0881C72.4522 54.0188 68.8813 56.8006 62.5945 58.6831C61.7649 56.7296 60.8681 54.5516 59.7467 52.4409C60.5559 50.2413 61.4326 48.2663 62.0173 46.1339C68.639 47.8209 72.2746 50.1574 72.3633 52.0881Z" fill="white"/>
<path d="M48.1604 57.8676C50.8884 57.0507 52.4377 54.177 51.6208 51.4489C50.8039 48.7209 47.9302 47.1716 45.2021 47.9885C42.4741 48.8053 40.9248 51.6791 41.7417 54.4071C42.5586 57.1352 45.4323 58.6845 48.1604 57.8676Z" fill="white"/>
</g>
<g filter="url(#filter0_dd_922_27)">
<g clip-path="url(#clip1_922_27)">
<path d="M174.236 54.5206C175.327 55.541 176.74 56.2401 178.337 56.4424L192.003 58.1727L191.164 64.7988L200.665 59.2695L204.403 59.7426C208.431 60.2527 212.109 57.4105 212.618 53.3942L215.908 27.4085C216.416 23.3923 213.563 19.723 209.534 19.2129L183.469 15.9127C179.44 15.4026 175.762 18.2449 175.254 22.2611L171.218 54.1385L174.236 54.5206Z" fill="#F7F3F1"/>
<path d="M209.534 19.213L203.286 18.4219C207.315 18.932 210.168 22.6014 209.66 26.6175L206.37 52.6031C205.861 56.6194 202.183 59.4617 198.155 58.9516L194.418 58.4784L191.769 60.0198L191.164 64.7988L200.665 59.2695L204.402 59.7426C208.431 60.2527 212.109 57.4105 212.618 53.3942L215.908 27.4085C216.416 23.3924 213.563 19.723 209.534 19.213Z" fill="#EFE7E3"/>
<path d="M187.099 46.7217L187.773 47.4255C188.843 48.5413 190.264 49.2561 191.797 49.4503L202.47 50.8017C203.482 50.9298 204.404 50.1889 204.485 49.1604C204.561 48.1972 205.712 39.4827 205.837 38.4995C205.961 37.5164 205.265 36.6182 204.282 36.4937L197.047 35.5555L198.199 33.5691C198.79 32.5507 199.137 31.4099 199.215 30.2353C199.293 29.0607 199.099 27.884 198.648 26.7967C198.135 25.7319 196.543 25.8983 196.36 27.1043C196.122 28.9862 195.205 30.7165 193.781 31.97L188.505 36.6077L186.822 36.3947L185.54 46.5242L187.099 46.7217Z" fill="#FFD36C"/>
<path d="M186.175 48.2365L181.302 47.6195C181.147 47.5999 181.007 47.5197 180.911 47.3964C180.816 47.2732 180.773 47.1171 180.793 46.9624L182.365 34.5403C182.385 34.3856 182.465 34.2451 182.588 34.1495C182.712 34.054 182.868 34.0113 183.022 34.0309L187.895 34.6479C187.972 34.6576 188.046 34.6823 188.113 34.7206C188.18 34.7588 188.239 34.8099 188.286 34.871C188.334 34.932 188.368 35.0017 188.389 35.0762C188.409 35.1507 188.415 35.2284 188.405 35.305L186.832 47.7271C186.812 47.8817 186.732 48.0223 186.609 48.1178C186.486 48.2133 186.33 48.256 186.175 48.2365Z" fill="#8EE6F3"/>
<path d="M172.597 67.5445L175.918 41.318C176.319 38.1509 174.069 35.2573 170.892 34.855L150.337 32.2525C147.16 31.8503 144.26 34.0917 143.859 37.2588L141.264 57.7507C140.863 60.9178 143.113 63.8114 146.29 64.2137L157.582 65.6434L156.914 70.9177L164.413 66.5083L172.597 67.5445Z" fill="#72D1FB"/>
<path d="M170.892 34.8551L162.746 33.8237C165.923 34.2259 168.173 37.1196 167.772 40.2867L164.452 66.5132L172.597 67.5446L175.918 41.318C176.319 38.1509 174.069 35.2573 170.892 34.8551Z" fill="#62A6FD"/>
<path d="M165.915 52.1738L161.781 51.6504L162.581 48.9686L166.262 49.4347C167.71 49.6181 167.995 47.3725 166.546 47.1891L163.237 46.77L164.328 43.1087C164.746 41.7098 162.577 41.0628 162.159 42.462L160.961 46.4818L158.252 46.1389L159.344 42.4775C159.761 41.0786 157.592 40.4315 157.174 41.8308L155.976 45.8507L151.471 45.2802C150.022 45.0968 149.738 47.3425 151.186 47.5259L155.32 48.0493L154.52 50.7311L150.839 50.265C149.391 50.0816 149.107 52.3272 150.555 52.5106L153.865 52.9297L152.773 56.591C152.36 57.9751 154.524 58.6389 154.942 57.2378L156.141 53.2179L158.85 53.5609L157.758 57.2222C157.345 58.6063 159.509 59.27 159.927 57.8689L161.126 53.849L165.631 54.4195C167.079 54.6029 167.364 52.3572 165.915 52.1738ZM159.505 51.3622L156.797 51.0193L157.596 48.3375L160.305 48.6805L159.505 51.3622Z" fill="#F7F3F1"/>
<path d="M184.255 64.7633L169.668 62.9164C167.414 62.631 165.355 64.2215 165.071 66.4691L163.23 81.0111C162.945 83.2587 164.542 85.3121 166.796 85.5975L174.81 86.6121L174.336 90.3552L179.657 87.2261L181.383 87.4446C183.637 87.73 185.696 86.1394 185.98 83.8918L187.822 69.3499C188.106 67.1023 186.509 65.0488 184.255 64.7633Z" fill="#FA9084"/>
<path d="M184.254 64.7633L177.967 63.9671C180.221 64.2526 181.818 66.306 181.534 68.5536L179.692 83.0957C179.408 85.3433 177.349 86.9338 175.095 86.6484L174.809 86.6122L174.335 90.3551L179.657 87.226L181.383 87.4445C183.637 87.7299 185.696 86.1394 185.98 83.8918L187.821 69.3497C188.106 67.1022 186.509 65.0487 184.254 64.7633Z" fill="#FF6CB5"/>
<path d="M174.9 80.1215C178.645 78.7052 180.664 77.3521 180.975 74.8993C181.403 71.516 177.366 70.1453 175.861 72.533C174.839 69.7396 170.746 70.1667 170.318 73.5499C170.007 76.0027 171.625 77.8162 174.9 80.1215Z" fill="#F7F3F1"/>
</g>
</g>
<g filter="url(#filter1_dd_922_27)">
<path d="M302.137 62.6366L323.782 59.2189L288.721 15.8871L268.718 67.9135L290.362 64.496" fill="#AFB9D2"/>
<path d="M302.138 62.6363L312.694 60.9694L291.939 36.2542L279.805 66.1625L290.362 64.4956" fill="#E4EAF7"/>
<path d="M323.782 59.2192L268.718 67.9139L275.038 51.4744L280.314 37.755L288.721 15.8875L303.461 34.1035L312.705 45.5285L323.782 59.2192Z" fill="#BEC8DC"/>
<path d="M312.694 60.9699L279.805 66.1631L282.183 60.3037L287.651 46.8238L291.938 36.2543L299.274 44.9902L308.629 56.1296L312.694 60.9699Z" fill="#E4EAF7"/>
<path d="M312.706 45.5285L306.386 61.9663L286.117 65.1667L275.038 51.4745L280.314 37.7551L295.052 55.9714L303.461 34.1036L312.706 45.5285Z" fill="#95A5B9"/>
<path d="M308.629 56.1298L306.386 61.9663L286.117 65.1667L282.183 60.3038L287.651 46.824L295.052 55.9714L299.274 44.9905L308.629 56.1298Z" fill="#BEC8DC"/>
<path d="M317.86 21.71L297.857 73.7367L262.796 30.4047L273.884 28.6538L294.825 54.536L306.773 23.4607L317.86 21.71Z" fill="#7DE6C4"/>
<path d="M306.773 23.4607L294.825 54.5357L273.884 28.6538L284.441 26.9869L291.938 36.2547L296.216 25.1275L306.773 23.4607Z" fill="#707384"/>
<path d="M325.299 86.0403L275.54 93.8972C274.075 94.1286 272.699 93.1283 272.468 91.6631L269.952 75.732C269.721 74.2663 270.721 72.8914 272.187 72.66L321.946 64.8031C323.411 64.5716 324.786 65.5716 325.018 67.0372L327.533 82.9685C327.764 84.4335 326.765 85.8089 325.299 86.0403Z" fill="#B9EBFF"/>
<path d="M321.946 64.8024L317.098 65.5678C318.564 65.3363 319.94 66.3367 320.171 67.8018L322.687 83.7338C322.918 85.1987 321.918 86.5743 320.452 86.8057L325.299 86.0404C326.765 85.8089 327.765 84.4335 327.533 82.9684L325.018 67.0364C324.786 65.5715 323.411 64.5711 321.946 64.8024Z" fill="#A0DCF0"/>
<path d="M276.195 77.703C276.154 77.4464 276.268 77.2076 276.537 76.9875C276.806 76.767 277.103 76.6309 277.428 76.5797C277.841 76.5143 278.111 76.6213 278.234 76.8995L282.238 85.5872L283.353 76.0914C283.385 75.7885 283.608 75.6038 284.022 75.5385C284.335 75.489 284.657 75.5302 284.987 75.6613C285.317 75.7927 285.502 75.9814 285.541 76.2272C285.545 76.2498 285.542 76.3076 285.534 76.4004L283.978 87.4614C283.949 87.7071 283.81 87.9156 283.561 88.0864C283.313 88.2571 283.021 88.3692 282.686 88.4221C281.914 88.5441 281.405 88.3722 281.159 87.9065L276.255 77.8655C276.218 77.7799 276.199 77.7255 276.195 77.703L276.195 77.703ZM287.156 84.2776L286.52 80.2511C286.493 80.0833 286.578 79.9095 286.773 79.7298C286.968 79.55 287.211 79.437 287.502 79.391C287.782 79.3468 288.042 79.3799 288.283 79.4907C288.524 79.6016 288.658 79.7403 288.684 79.907L289.318 83.9228C289.38 84.3134 289.58 84.6392 289.92 84.8995C290.259 85.1603 290.63 85.259 291.033 85.1954C291.435 85.1318 291.755 84.9241 291.992 84.5723C292.229 84.221 292.316 83.8496 292.255 83.4591L291.618 79.427C291.59 79.249 291.674 79.0751 291.871 78.9068C292.068 78.7384 292.312 78.6315 292.603 78.5856C292.916 78.5361 293.185 78.5627 293.407 78.6648C293.629 78.767 293.755 78.9082 293.783 79.0869L294.421 83.1298C294.564 84.0358 294.332 84.887 293.724 85.6817C293.115 86.4775 292.319 86.9525 291.334 87.108C290.35 87.2633 289.444 87.0573 288.614 86.4884C287.785 85.9207 287.299 85.1835 287.156 84.2776ZM295.725 82.8904L295.499 81.4638C295.355 80.547 295.588 79.702 296.2 78.9287C296.812 78.1562 297.626 77.6891 298.644 77.5284C299.595 77.3783 300.457 77.5506 301.228 78.0445C302 78.539 302.458 79.2406 302.602 80.1512C302.654 80.4835 302.655 80.7638 302.605 80.9935C302.556 81.2226 302.451 81.395 302.291 81.5111C302.132 81.6272 301.981 81.7078 301.839 81.7527C301.698 81.7984 301.509 81.839 301.274 81.876L297.868 82.4139L297.908 82.6657C297.984 83.1465 298.224 83.507 298.629 83.7469C299.034 83.9864 299.533 84.06 300.126 83.9664C300.551 83.8992 300.953 83.7268 301.333 83.4489C301.714 83.171 301.965 83.0225 302.088 83.003C302.324 82.9659 302.536 83.0441 302.727 83.2368C302.918 83.4303 303.03 83.6277 303.062 83.8288C303.111 84.142 302.878 84.4975 302.362 84.8942C301.845 85.2909 301.167 85.5554 300.328 85.6878C299.131 85.8768 298.105 85.7151 297.25 85.2025C296.396 84.6898 295.887 83.9191 295.725 82.8904ZM297.667 81.1389L300.116 80.7521C300.295 80.7238 300.416 80.6752 300.48 80.6067C300.544 80.5375 300.563 80.4199 300.536 80.2525C300.478 79.8869 300.289 79.6116 299.967 79.4272C299.645 79.2422 299.278 79.1827 298.864 79.2479C298.473 79.3098 298.149 79.4755 297.894 79.7464C297.638 80.0166 297.54 80.3347 297.597 80.7003L297.667 81.1389ZM303.535 81.7086C303.471 81.3057 303.511 81.0161 303.655 80.8387C303.799 80.6613 304.067 80.5413 304.459 80.4794C305.141 80.3717 305.541 80.5438 305.658 80.9951C305.892 82.1852 306.563 82.6922 307.67 82.5174C308.856 82.3301 309.347 81.5932 309.144 80.3069L308.1 73.6969L306.389 73.9671C306.176 74.0006 305.993 73.9322 305.84 73.7617C305.687 73.5912 305.589 73.3715 305.547 73.1029C305.506 72.8458 305.53 72.6156 305.618 72.4128C305.707 72.2094 305.863 72.0903 306.087 72.055L309.023 71.5914C309.28 71.5507 309.514 71.5771 309.723 71.6697C309.933 71.7628 310.054 71.9157 310.088 72.1282L311.325 79.9625C311.533 81.2821 311.331 82.3088 310.719 83.0415C310.107 83.7743 309.225 84.2316 308.072 84.4136C306.886 84.6008 305.874 84.4541 305.036 83.973C304.198 83.4925 303.698 82.7374 303.535 81.7086ZM312.97 81.5599C312.93 81.3027 312.986 81.0273 313.14 80.7331C313.295 80.4399 313.495 80.2733 313.741 80.2344C313.886 80.2115 314.062 80.2549 314.269 80.3653C314.48 80.4788 314.683 80.6047 314.879 80.7424C315.079 80.8835 315.352 80.9985 315.699 81.0862C316.045 81.1746 316.414 81.1876 316.806 81.1257C317.342 81.0409 317.77 80.8478 318.09 80.5453C318.409 80.2423 318.53 79.8507 318.454 79.3696C318.401 79.0345 318.256 78.7511 318.019 78.5185C317.782 78.2872 317.49 78.1096 317.144 77.9863C316.773 77.8559 316.397 77.7431 316.015 77.6484C315.599 77.5434 315.187 77.4222 314.78 77.2851C314.363 77.1442 313.974 76.9739 313.616 76.772C313.257 76.5709 312.947 76.2764 312.685 75.8872C312.423 75.4989 312.25 75.0361 312.165 74.4992C312.07 73.8978 312.106 73.3481 312.274 72.8502C312.442 72.3526 312.707 71.944 313.069 71.625C313.428 71.3087 313.834 71.0504 314.273 70.8592C314.713 70.6674 315.189 70.5313 315.704 70.45C315.995 70.4041 316.306 70.3758 316.637 70.3642C316.968 70.3538 317.322 70.3656 317.7 70.3996C318.078 70.4345 318.397 70.5313 318.657 70.69C318.918 70.8493 319.069 71.0606 319.11 71.3246C319.15 71.5738 319.112 71.844 318.997 72.1344C318.883 72.4254 318.691 72.5916 318.423 72.634C318.322 72.6499 318.031 72.5875 317.55 72.4451C317.069 72.3038 316.555 72.2756 316.006 72.3621C315.403 72.4574 314.953 72.646 314.66 72.9276C314.366 73.2092 314.251 73.5513 314.314 73.9535C314.365 74.278 314.544 74.5394 314.851 74.7372C315.157 74.9355 315.521 75.0786 315.942 75.1669C316.363 75.255 316.824 75.3776 317.324 75.5331C317.824 75.6893 318.294 75.87 318.734 76.0757C319.173 76.2815 319.568 76.6177 319.917 77.084C320.265 77.5504 320.493 78.1249 320.601 78.8072C320.782 79.9546 320.556 80.8975 319.922 81.6359C319.287 82.3751 318.371 82.8388 317.174 83.0279C316.112 83.1956 315.166 83.1214 314.337 82.8052C313.506 82.4896 313.051 82.0742 312.97 81.5599Z" fill="#54A1FF"/>
</g>
<path d="M444.616 33.9764L428.017 44.5043C425.861 41.1049 422.409 38.5278 418.171 37.5794L422.464 18.3988C431.998 20.5326 439.767 26.3286 444.616 33.9764Z" fill="url(#paint0_linear_922_27)"/>
<path d="M406.313 39.6468C402.913 41.8029 400.336 45.2554 399.388 49.493L380.207 45.2004C382.341 35.6659 388.137 27.8971 395.785 23.0478L406.313 39.6468Z" fill="url(#paint1_linear_922_27)"/>
<path d="M422.464 18.3988L418.171 37.5795C413.934 36.6312 409.712 37.4908 406.313 39.6469L395.785 23.048C403.431 18.1967 412.93 16.265 422.464 18.3988Z" fill="url(#paint2_linear_922_27)"/>
<path d="M449.266 60.6555L430.085 56.3629C431.033 52.1254 430.174 47.9037 428.018 44.5043L444.617 33.9763C449.468 41.6229 451.4 51.1211 449.266 60.6555Z" fill="url(#paint3_linear_922_27)"/>
<path d="M449.266 60.6556C447.132 70.19 441.336 77.9588 433.688 82.8081L423.16 66.2091C426.56 64.053 429.137 60.6005 430.085 56.3629L449.266 60.6556Z" fill="url(#paint4_linear_922_27)"/>
<path d="M401.455 61.3516L384.856 71.8796C380.005 64.233 378.073 54.7348 380.207 45.2004L399.388 49.493C398.44 53.7305 399.299 57.9522 401.455 61.3516Z" fill="url(#paint5_linear_922_27)"/>
<path d="M433.688 82.8082C426.041 87.6594 416.543 89.5911 407.009 87.4573L411.301 68.2766C415.539 69.225 419.761 68.3654 423.16 66.2093L433.688 82.8082Z" fill="url(#paint6_linear_922_27)"/>
<path d="M411.301 68.2767L407.009 87.4574C397.474 85.3236 389.706 79.5276 384.856 71.8798L401.455 61.3518C403.611 64.7512 407.064 67.3283 411.301 68.2767Z" fill="url(#paint7_linear_922_27)"/>
<path d="M437.403 38.5514L428.018 44.5043C425.862 41.1048 422.409 38.5277 418.171 37.5794L420.598 26.7353C427.832 28.3542 433.723 32.7506 437.403 38.5514Z" fill="url(#paint8_linear_922_27)"/>
<path d="M406.313 39.647C402.913 41.8031 400.336 45.2556 399.388 49.4932L388.544 47.0663C390.163 39.8324 394.559 33.942 400.36 30.2613L406.313 39.647Z" fill="url(#paint9_linear_922_27)"/>
<path d="M420.598 26.7354L418.171 37.5795C413.934 36.6311 409.712 37.4908 406.313 39.6469L400.36 30.2612C406.162 26.5827 413.364 25.1165 420.598 26.7354Z" fill="url(#paint10_linear_922_27)"/>
<path d="M440.929 58.79L430.085 56.3631C431.033 52.1256 430.174 47.9038 428.018 44.5044L437.403 38.5515C441.082 44.3537 442.548 51.5561 440.929 58.79Z" fill="url(#paint11_linear_922_27)"/>
<path d="M440.929 58.7898C439.31 66.0237 434.914 71.9141 429.113 75.5948L423.16 66.2091C426.56 64.053 429.137 60.6005 430.085 56.3629L440.929 58.7898Z" fill="url(#paint12_linear_922_27)"/>
<path d="M401.455 61.3517L392.07 67.3046C388.391 61.5024 386.925 54.3 388.544 47.0661L399.388 49.493C398.44 53.7306 399.299 57.9523 401.455 61.3517Z" fill="url(#paint13_linear_922_27)"/>
<path d="M429.113 75.5949C423.311 79.2734 416.108 80.7397 408.874 79.1207L411.301 68.2766C415.539 69.225 419.761 68.3654 423.16 66.2093L429.113 75.5949Z" fill="url(#paint14_linear_922_27)"/>
<path d="M411.302 68.2766L408.875 79.1207C401.641 77.5018 395.75 73.1054 392.07 67.3046L401.455 61.3517C403.611 64.7512 407.064 67.3283 411.302 68.2766Z" fill="url(#paint15_linear_922_27)"/>
<path d="M447.534 39.6477L430.292 50.5837C430.574 52.4539 430.523 54.4065 430.085 56.3629C429.137 60.6004 426.56 64.053 423.16 66.2091C419.761 68.3652 415.539 69.2248 411.301 68.2764C409.345 67.8386 407.557 67.053 405.985 66.0003L388.743 76.9363C393.454 82.046 399.714 85.8245 407.009 87.4571C416.543 89.5909 426.042 87.6593 433.688 82.808C441.336 77.9589 447.132 70.1899 449.266 60.6555C450.898 53.3603 450.148 46.0873 447.534 39.6477Z" fill="url(#paint16_linear_922_27)"/>
<path d="M382.395 60.6906L370.404 79.6689C369.824 80.5872 370.572 81.7668 371.65 81.6334L393.929 78.8758C398.965 75.6812 387.431 57.4961 382.395 60.6906Z" fill="url(#paint17_linear_922_27)"/>
<path d="M424.404 59.5484L393.928 78.8756C393.679 78.0795 393.201 77.3173 392.508 76.698C391.56 75.8566 389.794 75.8059 388.543 75.899C388.271 75.9179 388.067 75.7328 388.018 75.5082C388.001 75.4362 388 75.3613 388.015 75.2889C388.03 75.2165 388.061 75.1483 388.106 75.0894C388.109 75.09 388.109 75.0873 388.109 75.0873C388.207 74.9537 388.298 74.8153 388.382 74.6726L388.496 74.4675C388.5 74.4626 388.501 74.4599 388.502 74.4546C388.617 74.2326 388.713 74.0064 388.792 73.7705C388.817 73.6937 388.841 73.6135 388.864 73.5361C388.9 73.4066 388.931 73.2758 388.956 73.1438C389.136 72.1993 389.026 71.2222 388.639 70.3417C388.541 70.1187 388.427 69.9035 388.296 69.6982C388.166 69.4923 388.02 69.2968 387.86 69.1136C387.122 68.2649 386.125 67.7287 385.066 67.5486C384.986 67.5365 384.904 67.5237 384.823 67.5142C384.577 67.4845 384.328 67.4745 384.081 67.4847C384.076 67.4835 384.073 67.4829 384.067 67.4844L383.833 67.5004C383.748 67.5072 383.666 67.5173 383.584 67.5302C383.505 67.5409 383.425 67.5543 383.344 67.5705C383.341 67.5699 383.341 67.5699 383.338 67.572C383.266 67.5874 383.191 67.5866 383.119 67.5694C383.047 67.5523 382.979 67.5194 382.922 67.4731C382.74 67.3328 382.659 67.0697 382.792 66.8318C383.409 65.7397 384.116 64.1236 383.758 62.9074C383.494 62.0139 383.011 61.2565 382.395 60.6914L412.869 41.361C414.242 40.4922 416.059 40.8988 416.928 42.2696L418.572 44.8617L423.669 52.8967L425.313 55.4888C426.182 56.8592 425.775 58.6762 424.404 59.5484Z" fill="url(#paint18_linear_922_27)"/>
<path d="M423.669 52.8965L388.018 75.5081C388.001 75.4361 388 75.3612 388.015 75.2888C388.03 75.2164 388.061 75.1482 388.106 75.0893C388.109 75.0899 388.109 75.0871 388.109 75.0871C388.208 74.9526 388.716 74.0041 388.791 73.7703C388.82 73.6914 388.843 73.6139 388.864 73.5359C389.152 72.5013 389.092 71.3714 388.639 70.3416C388.541 70.1185 388.427 69.9034 388.296 69.6981C388.166 69.4922 388.02 69.2967 387.86 69.1135C387.122 68.2648 386.125 67.7285 385.066 67.5485C384.987 67.5336 384.907 67.5215 384.823 67.514C384.577 67.4822 384.329 67.4723 384.081 67.4846C384.076 67.4834 384.073 67.4828 384.067 67.4843C383.989 67.4868 383.425 67.5541 383.344 67.5703C383.341 67.5697 383.341 67.5697 383.338 67.5718C383.266 67.5872 383.191 67.5863 383.119 67.5692C383.047 67.5521 382.979 67.5192 382.922 67.4729L418.572 44.8612L423.669 52.8965Z" fill="url(#paint19_linear_922_27)"/>
<path d="M375.141 78.0418C374.554 77.1155 373.827 76.2858 372.986 75.5823L370.404 79.6687C369.824 80.587 370.572 81.7666 371.65 81.6331L376.447 81.0394C376.169 79.9786 375.729 78.9674 375.141 78.0418Z" fill="url(#paint20_linear_922_27)"/>
<path d="M456.678 26.3262L419.879 49.6667L416.464 44.2836C415.72 43.1102 416.068 41.5556 417.241 40.8114L420.461 38.7693C421.149 38.3329 421.744 37.7652 422.213 37.0987C422.682 36.4321 423.015 35.6798 423.193 34.8847L423.926 31.6062C424.504 29.0269 426.651 27.0964 429.277 26.7965L455.776 23.7703C457.243 23.6027 457.925 25.5353 456.678 26.3262Z" fill="url(#paint21_linear_922_27)"/>
<path d="M456.678 26.3262L419.879 49.6667L423.293 55.0498C424.037 56.2231 425.592 56.5711 426.765 55.8268L429.985 53.7848C430.673 53.3484 431.44 53.0518 432.243 52.9119C433.045 52.772 433.868 52.7916 434.663 52.9695L437.941 53.7032C440.521 54.2805 443.182 53.1605 444.573 50.9127L458.606 28.2319C459.382 26.9764 457.925 25.5353 456.678 26.3262Z" fill="url(#paint22_linear_922_27)"/>
<path d="M439.024 38.7347L457.509 27.0109C457.969 26.7191 458.15 26.117 457.889 25.6389C457.822 25.5159 457.73 25.4079 457.62 25.3217C457.509 25.2355 457.382 25.1729 457.247 25.1378C457.111 25.1026 456.97 25.0957 456.831 25.1175C456.693 25.1392 456.56 25.1892 456.442 25.2642L437.972 36.9794C436.762 37.7465 435.272 37.981 433.907 37.5465C432.645 37.1446 431.205 37.3344 430.043 38.2181C428.397 39.4704 427.902 41.7772 428.887 43.5962C430.07 45.7801 432.829 46.4729 434.891 45.1655C435.97 44.4808 436.635 43.3891 436.812 42.2172C437.027 40.7893 437.805 39.5081 439.024 38.7347Z" fill="url(#paint23_linear_922_27)"/>
<path d="M422.549 36.5645C422.046 37.4609 421.329 38.2184 420.461 38.7691L417.241 40.8112C416.068 41.5554 415.72 43.11 416.464 44.2834L419.878 49.6665L423.293 55.0496C424.037 56.2229 425.592 56.5709 426.765 55.8266L429.985 53.7846C430.852 53.2343 431.844 52.9082 432.869 52.8357L422.549 36.5645Z" fill="url(#paint24_linear_922_27)"/>
<path d="M419.897 62.4068L408.362 44.219L415.61 39.6217C416.45 39.0893 417.562 39.3381 418.094 40.1776L427.702 55.3255C428.234 56.165 427.985 57.2771 427.146 57.8094L419.897 62.4068Z" fill="url(#paint25_linear_922_27)"/>
<defs>
<filter id="filter0_dd_922_27" x="109.753" y="-4.83896" width="135.046" height="135.046" filterUnits="userSpaceOnUse" color-interpolation-filters="sRGB">
<feFlood flood-opacity="0" result="BackgroundImageFix"/>
<feColorMatrix in="SourceAlpha" type="matrix" values="0 0 0 0 0 0 0 0 0 0 0 0 0 0 0 0 0 0 127 0" result="hardAlpha"/>
<feMorphology radius="3.6585" operator="erode" in="SourceAlpha" result="effect1_dropShadow_922_27"/>
<feOffset dy="9.75599"/>
<feGaussianBlur stdDeviation="14.634"/>
<feColorMatrix type="matrix" values="0 0 0 0 0.0627451 0 0 0 0 0.0941176 0 0 0 0 0.156863 0 0 0 0.1 0"/>
<feBlend mode="normal" in2="BackgroundImageFix" result="effect1_dropShadow_922_27"/>
<feColorMatrix in="SourceAlpha" type="matrix" values="0 0 0 0 0 0 0 0 0 0 0 0 0 0 0 0 0 0 127 0" result="hardAlpha"/>
<feMorphology radius="3.6585" operator="erode" in="SourceAlpha" result="effect2_dropShadow_922_27"/>
<feOffset dy="9.75599"/>
<feGaussianBlur stdDeviation="14.634"/>
<feColorMatrix type="matrix" values="0 0 0 0 0.0627451 0 0 0 0 0.0941176 0 0 0 0 0.156863 0 0 0 0.05 0"/>
<feBlend mode="normal" in2="effect1_dropShadow_922_27" result="effect2_dropShadow_922_27"/>
<feBlend mode="normal" in="SourceGraphic" in2="effect2_dropShadow_922_27" result="shape"/>
</filter>
<filter id="filter1_dd_922_27" x="237.186" y="0.0336556" width="115.99" height="129.262" filterUnits="userSpaceOnUse" color-interpolation-filters="sRGB">
<feFlood flood-opacity="0" result="BackgroundImageFix"/>
<feColorMatrix in="SourceAlpha" type="matrix" values="0 0 0 0 0 0 0 0 0 0 0 0 0 0 0 0 0 0 127 0" result="hardAlpha"/>
<feMorphology radius="3.6585" operator="erode" in="SourceAlpha" result="effect1_dropShadow_922_27"/>
<feOffset dy="9.75599"/>
<feGaussianBlur stdDeviation="14.634"/>
<feColorMatrix type="matrix" values="0 0 0 0 0.0627451 0 0 0 0 0.0941176 0 0 0 0 0.156863 0 0 0 0.1 0"/>
<feBlend mode="normal" in2="BackgroundImageFix" result="effect1_dropShadow_922_27"/>
<feColorMatrix in="SourceAlpha" type="matrix" values="0 0 0 0 0 0 0 0 0 0 0 0 0 0 0 0 0 0 127 0" result="hardAlpha"/>
<feMorphology radius="3.6585" operator="erode" in="SourceAlpha" result="effect2_dropShadow_922_27"/>
<feOffset dy="9.75599"/>
<feGaussianBlur stdDeviation="14.634"/>
<feColorMatrix type="matrix" values="0 0 0 0 0.0627451 0 0 0 0 0.0941176 0 0 0 0 0.156863 0 0 0 0.05 0"/>
<feBlend mode="normal" in2="effect1_dropShadow_922_27" result="effect2_dropShadow_922_27"/>
<feBlend mode="normal" in="SourceGraphic" in2="effect2_dropShadow_922_27" result="shape"/>
</filter>
<linearGradient id="paint0_linear_922_27" x1="419.017" y1="16.2638" x2="436.736" y2="44.2007" gradientUnits="userSpaceOnUse">
<stop stop-color="#FFF5D9"/>
<stop offset="1" stop-color="#FFCE47"/>
</linearGradient>
<linearGradient id="paint1_linear_922_27" x1="387.487" y1="33.3212" x2="395.418" y2="45.826" gradientUnits="userSpaceOnUse">
<stop stop-color="#6FA953"/>
<stop offset="1" stop-color="#43765A"/>
</linearGradient>
<linearGradient id="paint2_linear_922_27" x1="408.149" y1="19.1856" x2="418.572" y2="35.6191" gradientUnits="userSpaceOnUse">
<stop stop-color="#E4E08E"/>
<stop offset="1" stop-color="#6FA953"/>
</linearGradient>
<linearGradient id="paint3_linear_922_27" x1="430.477" y1="34.3315" x2="447.394" y2="61.0036" gradientUnits="userSpaceOnUse">
<stop stop-color="#FFCE47"/>
<stop offset="1" stop-color="#FF9356"/>
</linearGradient>
<linearGradient id="paint4_linear_922_27" x1="430.917" y1="55.0822" x2="440.724" y2="70.5447" gradientUnits="userSpaceOnUse">
<stop stop-color="#FF9356"/>
<stop offset="1" stop-color="#FF755C"/>
</linearGradient>
<linearGradient id="paint5_linear_922_27" x1="382.756" y1="45.9189" x2="394.296" y2="64.1132" gradientUnits="userSpaceOnUse">
<stop stop-color="#7ACBFF"/>
<stop offset="1" stop-color="#45A2E0"/>
</linearGradient>
<linearGradient id="paint6_linear_922_27" x1="410.854" y1="70.1631" x2="420.535" y2="85.4266" gradientUnits="userSpaceOnUse">
<stop stop-color="#FF755C"/>
<stop offset="1" stop-color="#FF4181"/>
</linearGradient>
<linearGradient id="paint7_linear_922_27" x1="391.011" y1="58.9338" x2="414.42" y2="95.8426" gradientUnits="userSpaceOnUse">
<stop stop-color="#FF4181"/>
<stop offset="1" stop-color="#843561"/>
</linearGradient>
<linearGradient id="paint8_linear_922_27" x1="431.301" y1="43.6049" x2="420.396" y2="26.4109" gradientUnits="userSpaceOnUse">
<stop stop-color="#FFF5D9"/>
<stop offset="1" stop-color="#FFCE47"/>
</linearGradient>
<linearGradient id="paint9_linear_922_27" x1="400.96" y1="48.9254" x2="387.444" y2="27.6149" gradientUnits="userSpaceOnUse">
<stop stop-color="#6FA953"/>
<stop offset="1" stop-color="#43765A"/>
</linearGradient>
<linearGradient id="paint10_linear_922_27" x1="416.275" y1="37.6369" x2="404.247" y2="18.6718" gradientUnits="userSpaceOnUse">
<stop stop-color="#E4E08E"/>
<stop offset="1" stop-color="#6FA953"/>
</linearGradient>
<linearGradient id="paint11_linear_922_27" x1="440.802" y1="58.5845" x2="428.103" y2="38.5635" gradientUnits="userSpaceOnUse">
<stop stop-color="#FFCE47"/>
<stop offset="1" stop-color="#FF9356"/>
</linearGradient>
<linearGradient id="paint12_linear_922_27" x1="436.995" y1="70.3038" x2="428.511" y2="56.9281" gradientUnits="userSpaceOnUse">
<stop stop-color="#FF9356"/>
<stop offset="1" stop-color="#FF755C"/>
</linearGradient>
<linearGradient id="paint13_linear_922_27" x1="401.362" y1="67.2801" x2="385.699" y2="42.5846" gradientUnits="userSpaceOnUse">
<stop stop-color="#7ACBFF"/>
<stop offset="1" stop-color="#45A2E0"/>
</linearGradient>
<linearGradient id="paint14_linear_922_27" x1="421.42" y1="81.1839" x2="410.004" y2="63.184" gradientUnits="userSpaceOnUse">
<stop stop-color="#FF755C"/>
<stop offset="1" stop-color="#FF4181"/>
</linearGradient>
<linearGradient id="paint15_linear_922_27" x1="409.132" y1="79.5303" x2="395.199" y2="57.563" gradientUnits="userSpaceOnUse">
<stop stop-color="#FF4181"/>
<stop offset="1" stop-color="#843561"/>
</linearGradient>
<linearGradient id="paint16_linear_922_27" x1="426.244" y1="71.0707" x2="418.146" y2="58.3043" gradientUnits="userSpaceOnUse">
<stop stop-color="#843561" stop-opacity="0"/>
<stop offset="1" stop-color="#3A2F4D"/>
</linearGradient>
<linearGradient id="paint17_linear_922_27" x1="375.402" y1="65.0912" x2="386.936" y2="83.2765" gradientUnits="userSpaceOnUse">
<stop stop-color="#FFE0EA"/>
<stop offset="1" stop-color="#FFC0D5"/>
</linearGradient>
<linearGradient id="paint18_linear_922_27" x1="383.613" y1="55.2491" x2="424.215" y2="64.3358" gradientUnits="userSpaceOnUse">
<stop stop-color="#FFCE47"/>
<stop offset="1" stop-color="#FF9356"/>
</linearGradient>
<linearGradient id="paint19_linear_922_27" x1="408.081" y1="67.7302" x2="396.437" y2="49.3722" gradientUnits="userSpaceOnUse">
<stop stop-color="#FFCE47"/>
<stop offset="1" stop-color="#FF9356"/>
</linearGradient>
<linearGradient id="paint20_linear_922_27" x1="372.421" y1="78.9621" x2="375.364" y2="83.6021" gradientUnits="userSpaceOnUse">
<stop stop-color="#2F73A0"/>
<stop offset="1" stop-color="#174461"/>
</linearGradient>
<linearGradient id="paint21_linear_922_27" x1="436.254" y1="32.7905" x2="437.491" y2="36.4431" gradientUnits="userSpaceOnUse">
<stop stop-color="#EDF5FF"/>
<stop offset="1" stop-color="#C7E9FF"/>
</linearGradient>
<linearGradient id="paint22_linear_922_27" x1="439.839" y1="40.0883" x2="441.431" y2="45.4346" gradientUnits="userSpaceOnUse">
<stop stop-color="#EDF5FF"/>
<stop offset="1" stop-color="#C7E9FF"/>
</linearGradient>
<linearGradient id="paint23_linear_922_27" x1="445.568" y1="38.0326" x2="442.028" y2="32.4519" gradientUnits="userSpaceOnUse">
<stop stop-color="#2F73A0"/>
<stop offset="1" stop-color="#174461"/>
</linearGradient>
<linearGradient id="paint24_linear_922_27" x1="425.644" y1="45.9888" x2="422.596" y2="47.9225" gradientUnits="userSpaceOnUse">
<stop stop-color="#7ACBFF" stop-opacity="0"/>
<stop offset="1" stop-color="#2F73A0"/>
</linearGradient>
<linearGradient id="paint25_linear_922_27" x1="420.161" y1="48.5806" x2="414.889" y2="53.9415" gradientUnits="userSpaceOnUse">
<stop stop-color="#2F73A0"/>
<stop offset="1" stop-color="#174461"/>
</linearGradient>
<clipPath id="clip0_922_27">
<rect width="75" height="75" fill="white" transform="translate(0 27.761) rotate(-16.6698)"/>
</clipPath>
<clipPath id="clip1_922_27">
<rect width="75" height="75" fill="white" transform="translate(144.783 11.0145) rotate(7.21612)"/>
</clipPath>
</defs>
</svg>
